<svg xmlns="http://www.w3.org/2000/svg" xmlns:xlink="http://www.w3.org/1999/xlink" width="123" height="22" viewBox="0 0 123 22"><defs><polygon id="a" points="0 .261 23.715 .261 23.715 21.474 0 21.474"/></defs><g fill="none" fill-rule="evenodd" transform="translate(.404)"><polygon fill="#303133" points="46.566 8.883 33.922 8.883 33.922 .893 29.228 .893 29.228 20.915 33.922 20.915 33.922 12.925 46.566 12.925 46.566 20.915 51.26 20.915 51.26 .893 46.566 .893"/><polygon fill="#303133" points="54.243 20.915 58.73 20.915 58.73 .893 54.243 .893"/><polygon fill="#303133" points="78.321 .847 72.039 16.438 65.786 .847 60.766 .847 69.375 20.869 74.563 20.869 83.172 .847"/><polygon fill="#303133" points="102.147 .893 102.147 4.622 109.999 4.622 109.999 20.915 114.486 20.915 114.486 4.622 122.338 4.622 122.338 .893"/><g transform="translate(0 .037)"><mask id="b" fill="#fff"><use xlink:href="#a"/></mask><path fill="#303133" d="M20.9349053,11.0127768 C20.9349053,11.2161791 20.8263445,11.4028798 20.6518718,11.5039845 L8.01229362,18.802312 C7.83632969,18.9031184 7.62069932,18.9031184 7.4447354,18.802312 L7.19212278,18.6552777 C7.0164571,18.5544713 6.90759806,18.3662793 6.90759806,18.16407 L6.90759806,3.56920452 C6.90759806,3.36729338 7.0164571,3.18059267 7.19212278,3.078295 L7.44622662,2.93275196 C7.62069932,2.83015604 7.83632969,2.83015604 8.01229362,2.93275196 L20.6518718,10.2295882 C20.8263445,10.3303946 20.9349053,10.5170953 20.9349053,10.7204977 L20.9349053,11.0127768 Z M23.3784179,9.60983728 L18.7073213,1.51907568 C18.2572712,0.740360756 17.4266618,0.261380989 16.5283511,0.261380989 L7.1861579,0.261380989 C6.2881454,0.261380989 5.45723778,0.740360756 5.00748592,1.51907568 L0.33638934,9.60983728 C-0.112169546,10.387061 -0.112169546,11.3465117 0.33638934,12.1234372 L5.00748592,20.2159883 C5.45723778,20.9929137 6.2881454,21.473683 7.1861579,21.473683 L16.5283511,21.473683 C17.4266618,21.473683 18.2572712,20.9929137 18.7073213,20.2159883 L23.3784179,12.1252267 C23.8266785,11.3465117 23.8266785,10.387061 23.3784179,9.60983728 L23.3784179,9.60983728 Z" mask="url(#b)"/><path fill="#303133" d="M92.1435388,17.0858585 C89.2502744,17.0858585 86.2773788,15.0682382 86.2773788,10.8212445 C86.2773788,6.57425081 89.2502744,4.5569288 92.1435388,4.5569288 C95.0636453,4.5569288 98.0365408,6.57425081 98.0365408,10.8212445 C98.0365408,15.0682382 95.0636453,17.0858585 92.1435388,17.0858585 M92.1429424,0.41879414 C86.7375692,0.41879414 81.8952806,4.38842098 81.8952806,10.835262 C81.8952806,17.2543663 86.7375692,21.2239931 92.1429424,21.2239931 C97.5766487,21.2239931 102.418639,17.2543663 102.418639,10.835262 C102.418639,4.38842098 97.5766487,0.41879414 92.1429424,0.41879414"/></g></g></svg>