<svg width="197" height="35" viewBox="0 0 197 35" xmlns="http://www.w3.org/2000/svg" xmlns:xlink="http://www.w3.org/1999/xlink"><defs><polygon id="a" points="0 0.418209582 37.9433814 0.418209582 37.9433814 34.3577019 0 34.3577019"/></defs><g transform="translate(.846)" fill="none" fill-rule="evenodd"><polygon fill="#F0F0F1" points="74.5052968 14.2128746 54.2752911 14.2128746 54.2752911 1.42846917 46.7643157 1.42846917 46.7643157 33.4636858 54.2752911 33.4636858 54.2752911 20.6792804 74.5052968 20.6792804 74.5052968 33.4636858 82.0162722 33.4636858 82.0162722 1.42846917 74.5052968 1.42846917"/><polygon fill="#F0F0F1" points="86.7889864 33.4637813 93.9673602 33.4637813 93.9673602 1.42856461 86.7889864 1.42856461"/><polygon fill="#F0F0F1" points="125.313466 1.35550678 115.262884 26.3015843 105.257635 1.35550678 97.226045 1.35550678 111.00062 33.3907234 119.300868 33.3907234 133.075444 1.35550678"/><polygon fill="#F0F0F1" points="163.435961 1.42861233 163.435961 7.39587708 175.99895 7.39587708 175.99895 33.463829 183.177801 33.463829 183.177801 7.39587708 195.740313 7.39587708 195.740313 1.42861233"/><g transform="translate(0 .059)"><mask id="b" fill="#fff"><use xlink:href="#a"/></mask><path d="M33.4958484,17.6204428 C33.4958484,17.9458866 33.3221512,18.2446077 33.0429948,18.4063753 L12.8196698,30.0836992 C12.5381275,30.2449895 12.1931189,30.2449895 11.9115766,30.0836992 L11.5073964,29.8484444 C11.2263314,29.687154 11.0521569,29.386047 11.0521569,29.0625119 L11.0521569,5.71072724 C11.0521569,5.3876694 11.2263314,5.08894827 11.5073964,4.925272 L11.9139626,4.69240313 C12.1931189,4.52824967 12.5381275,4.52824967 12.8196698,4.69240313 L33.0429948,16.3673411 C33.3221512,16.5286314 33.4958484,16.8273525 33.4958484,17.1527963 L33.4958484,17.6204428 Z M37.4054686,15.3757396 L29.9317141,2.43052109 C29.2116339,1.18457721 27.8826589,0.418209582 26.4453617,0.418209582 L11.4978526,0.418209582 C10.0610326,0.418209582 8.73158045,1.18457721 8.01197748,2.43052109 L0.538222943,15.3757396 C-0.179471273,16.6192976 -0.179471273,18.1544188 0.538222943,19.3974995 L8.01197748,32.3455812 C8.73158045,33.588662 10.0610326,34.3578927 11.4978526,34.3578927 L26.4453617,34.3578927 C27.8826589,34.3578927 29.2116339,33.588662 29.9317141,32.3455812 L37.4054686,19.4003627 C38.1226856,18.1544188 38.1226856,16.6192976 37.4054686,15.3757396 L37.4054686,15.3757396 Z" fill="#F0F0F1" mask="url(#b)"/><path d="M147.429662,27.3373735 C142.800439,27.3373735 138.043806,24.1091811 138.043806,17.3139912 C138.043806,10.5188013 142.800439,7.29108609 147.429662,7.29108609 C152.101832,7.29108609 156.858465,10.5188013 156.858465,17.3139912 C156.858465,24.1091811 152.101832,27.3373735 147.429662,27.3373735 M147.428708,0.670070624 C138.780111,0.670070624 131.032449,7.02147356 131.032449,17.3364192 C131.032449,27.6069861 138.780111,33.958389 147.428708,33.958389 C156.122638,33.958389 163.869822,27.6069861 163.869822,17.3364192 C163.869822,7.02147356 156.122638,0.670070624 147.428708,0.670070624" fill="#F0F0F1"/></g></g></svg>